<svg class="h-3.5" viewBox="0 0 81 15" fill="none" xmlns="http://www.w3.org/2000/svg"><path d="M8.152 15q-2.313 0-4.173-.958-1.86-.98-2.92-2.688Q0 9.625 0 7.5t1.06-3.833Q2.12 1.937 3.979.979 5.839 0 8.152 0q2.314 0 4.174.98 1.86.957 2.92 2.666 1.058 1.708 1.059 3.854t-1.06 3.854q-1.06 1.71-2.92 2.688Q10.467 15 8.153 15m0-2.375q1.515 0 2.725-.646a4.94 4.94 0 0 0 1.903-1.833q.692-1.188.692-2.646t-.692-2.625a4.75 4.75 0 0 0-1.903-1.833q-1.211-.667-2.725-.667t-2.724.667a4.75 4.75 0 0 0-1.903 1.833Q2.832 6.042 2.833 7.5q0 1.458.692 2.646a4.94 4.94 0 0 0 1.903 1.833q1.21.646 2.724.646M34.81 14.792l-3.092-4.271q-.195.02-.584.02h-3.416v4.25h-2.811V.209h6.227q1.968 0 3.417.625 1.47.625 2.249 1.792t.779 2.77q0 1.647-.844 2.834-.821 1.188-2.379 1.771l3.482 4.792zm-.064-9.396q0-1.395-.952-2.146-.951-.75-2.79-.75h-3.286v5.813h3.287q1.838 0 2.79-.75.95-.771.95-2.167M53.352 15q-2.292 0-4.152-.958-1.838-.98-2.897-2.688-1.038-1.708-1.038-3.854t1.06-3.854q1.059-1.71 2.897-2.667Q51.082 0 53.374 0q1.86 0 3.395.625a6.9 6.9 0 0 1 2.595 1.813l-1.817 1.645q-1.643-1.708-4.043-1.708-1.557 0-2.79.667a4.75 4.75 0 0 0-1.925 1.812q-.691 1.167-.692 2.646 0 1.479.692 2.646a4.9 4.9 0 0 0 1.925 1.833q1.233.646 2.79.646 2.4 0 4.043-1.73l1.817 1.668a6.9 6.9 0 0 1-2.617 1.812Q55.212 15 53.352 15M74.275 0q2.032 0 3.546.77a5.38 5.38 0 0 1 2.336 2.293Q81 4.563 81 6.708v8.084h-2.811v-3.75h-7.871v3.75H67.55V6.708q0-2.145.822-3.645A5.5 5.5 0 0 1 70.727.77Q72.244 0 74.276 0m3.914 8.77V6.459q0-2.02-1.038-3.041-1.038-1.042-2.898-1.042t-2.897 1.042q-1.038 1.02-1.038 3.041v2.313z" fill="#EEEFF6"></path></svg>